<svg width="43" height="43" viewBox="0 0 43 43" xmlns="http://www.w3.org/2000/svg">
<path d="M22.1719 20.1563V29.5625C22.1719 29.7407 22.1011 29.9116 21.9751 30.0376C21.8491 30.1636 21.6782 30.2344 21.5 30.2344C21.3218 30.2344 21.1509 30.1636 21.0249 30.0376C20.8989 29.9116 20.8281 29.7407 20.8281 29.5625V20.1563C20.8281 19.9781 20.8989 19.8072 21.0249 19.6812C21.1509 19.5552 21.3218 19.4844 21.5 19.4844C21.6782 19.4844 21.8491 19.5552 21.9751 19.6812C22.1011 19.8072 22.1719 19.9781 22.1719 20.1563ZM39.6221 16.3921L37.2891 33.8609C37.2244 34.3442 36.9868 34.7877 36.6202 35.1092C36.2536 35.4307 35.7829 35.6084 35.2953 35.6094H7.70472C7.21711 35.6084 6.74638 35.4307 6.37977 35.1092C6.01317 34.7877 5.77554 34.3442 5.71093 33.8609L3.38289 16.3921C3.34489 16.1079 3.36798 15.8188 3.45062 15.5442C3.53326 15.2696 3.67354 15.0158 3.8621 14.7997C4.05065 14.5837 4.28314 14.4103 4.54404 14.2913C4.80493 14.1722 5.08823 14.1102 5.37499 14.1094H11.788L20.9961 3.58953C21.0591 3.51804 21.1367 3.46078 21.2236 3.42156C21.3104 3.38234 21.4047 3.36206 21.5 3.36206C21.5953 3.36206 21.6896 3.38234 21.7764 3.42156C21.8633 3.46078 21.9409 3.51804 22.0039 3.58953L31.212 14.1094H37.625C37.9122 14.1095 38.196 14.171 38.4576 14.2897C38.7191 14.4084 38.9522 14.5817 39.1413 14.7978C39.3304 15.014 39.4711 15.268 39.554 15.543C39.637 15.8179 39.6602 16.1075 39.6221 16.3921ZM13.5736 14.1094H29.4264L21.5 5.05086L13.5736 14.1094ZM38.1289 15.6816C38.0664 15.6094 37.9889 15.5516 37.902 15.5122C37.815 15.4728 37.7205 15.4526 37.625 15.4532H5.37499C5.27891 15.4524 5.18376 15.4722 5.09598 15.5112C5.0082 15.5503 4.92982 15.6078 4.86614 15.6798C4.80246 15.7517 4.75496 15.8365 4.72683 15.9284C4.69871 16.0203 4.69062 16.1171 4.70312 16.2124L7.03117 33.6811C7.05286 33.8435 7.13312 33.9923 7.25685 34.0997C7.38058 34.207 7.53925 34.2654 7.70304 34.264H35.2953C35.4591 34.2654 35.6177 34.207 35.7415 34.0997C35.8652 33.9923 35.9454 33.8435 35.9671 33.6811L38.2969 16.2141C38.3094 16.1184 38.3008 16.0212 38.2718 15.9293C38.2428 15.8373 38.194 15.7528 38.1289 15.6816ZM30.4359 19.4844C30.3481 19.4756 30.2595 19.4841 30.175 19.5096C30.0905 19.535 30.0119 19.5769 29.9435 19.6327C29.8752 19.6885 29.8186 19.7573 29.7768 19.835C29.7351 19.9128 29.7091 19.998 29.7002 20.0857L28.7596 29.492C28.7498 29.5803 28.7577 29.6697 28.7827 29.755C28.8077 29.8402 28.8494 29.9197 28.9053 29.9887C28.9612 30.0578 29.0303 30.115 29.1085 30.1572C29.1867 30.1994 29.2725 30.2256 29.3609 30.2344H29.4298C29.5969 30.2353 29.7584 30.1738 29.8826 30.062C30.0069 29.9501 30.085 29.796 30.1017 29.6297L31.0423 20.2235C31.0516 20.135 31.0432 20.0456 31.0177 19.9605C30.9921 19.8753 30.9499 19.796 30.8935 19.7273C30.8371 19.6585 30.7676 19.6017 30.6891 19.56C30.6105 19.5183 30.5245 19.4926 30.4359 19.4844ZM12.5641 19.4844C12.4763 19.4932 12.3911 19.5193 12.3133 19.561C12.2356 19.6028 12.1669 19.6594 12.111 19.7277C12.0552 19.796 12.0133 19.8747 11.9879 19.9592C11.9625 20.0437 11.9539 20.1323 11.9627 20.2201L12.9034 29.6264C12.9201 29.7927 12.9982 29.9468 13.1224 30.0586C13.2466 30.1704 13.4081 30.2319 13.5752 30.2311H13.6441C13.7319 30.2222 13.8171 30.1962 13.8948 30.1545C13.9725 30.1127 14.0413 30.0561 14.0971 29.9877C14.153 29.9194 14.1948 29.8408 14.2203 29.7563C14.2457 29.6718 14.2542 29.5831 14.2454 29.4954L13.3048 20.0891C13.2964 20.0005 13.2705 19.9145 13.2286 19.8361C13.1868 19.7576 13.1297 19.6882 13.0608 19.632C12.9919 19.5757 12.9125 19.5337 12.8272 19.5084C12.742 19.483 12.6525 19.4749 12.5641 19.4844Z" fill="black"/>
</svg>
