<svg xmlns="http://www.w3.org/2000/svg" width="30" height="30" ><g clip-path="url(#a)"><path d="M28.125 22.5a1.875 1.875 0 0 1-1.875 1.875H3.75A1.875 1.875 0 0 1 1.875 22.5V11.25A1.875 1.875 0 0 1 3.75 9.375h2.198c1.49 0 2.92-.594 3.974-1.648l1.557-1.553c.35-.35.826-.548 1.322-.549h4.395c.497 0 .974.198 1.325.55l1.553 1.552a5.63 5.63 0 0 0 3.978 1.648h2.198a1.875 1.875 0 0 1 1.875 1.875zM3.75 7.5A3.75 3.75 0 0 0 0 11.25V22.5a3.75 3.75 0 0 0 3.75 3.75h22.5A3.75 3.75 0 0 0 30 22.5V11.25a3.75 3.75 0 0 0-3.75-3.75h-2.198a3.75 3.75 0 0 1-2.65-1.099L19.848 4.85a3.75 3.75 0 0 0-2.651-1.099h-4.395a3.75 3.75 0 0 0-2.652 1.099L8.6 6.4A3.75 3.75 0 0 1 5.947 7.5z"/><path d="M15 20.625a4.688 4.688 0 1 1 0-9.376 4.688 4.688 0 0 1 0 9.376m0 1.875a6.563 6.563 0 1 0 0-13.125A6.563 6.563 0 0 0 15 22.5M5.625 12.188a.937.937 0 1 1-1.875 0 .937.937 0 0 1 1.875 0"/></g><defs><clipPath id="a"><path  d="M0 0h30v30H0z"/></clipPath></defs></svg>