<svg xmlns="http://www.w3.org/2000/svg" width="30" height="30" fill="none"><path fill="#000" d="M23.493 7.508a11.88 11.88 0 0 0-8.403-3.524H15A11.953 11.953 0 0 0 3.047 15.938V22.5a2.58 2.58 0 0 0 2.578 2.578H7.5a2.58 2.58 0 0 0 2.578-2.578v-4.687A2.58 2.58 0 0 0 7.5 15.234H4.477A10.561 10.561 0 0 1 22.5 8.498a10.48 10.48 0 0 1 3.025 6.736H22.5a2.58 2.58 0 0 0-2.578 2.579V22.5a2.58 2.58 0 0 0 2.578 2.578h1.875a2.58 2.58 0 0 0 2.578-2.578v-6.562a11.9 11.9 0 0 0-3.46-8.43M7.5 16.641a1.17 1.17 0 0 1 1.172 1.172V22.5A1.17 1.17 0 0 1 7.5 23.672H5.625A1.17 1.17 0 0 1 4.453 22.5v-5.86zM25.547 22.5a1.17 1.17 0 0 1-1.172 1.172H22.5a1.17 1.17 0 0 1-1.172-1.172v-4.687A1.17 1.17 0 0 1 22.5 16.64h3.047z"/></svg>