<svg width="16" height="14" viewBox="0 0 16 14" fill="none" xmlns="http://www.w3.org/2000/svg">
<path d="M13.8925 7.95165L9.1783 12.6666C8.86575 12.9791 8.44191 13.1546 7.99997 13.1546C7.55803 13.1546 7.13418 12.9791 6.82163 12.6666L2.10747 7.95248C1.71777 7.56619 1.40822 7.10673 1.19657 6.60048C0.984926 6.09423 0.875357 5.55116 0.874155 5.00245C0.872954 4.45374 0.980144 3.9102 1.18957 3.40303C1.399 2.89586 1.70654 2.43505 2.09453 2.04705C2.48253 1.65905 2.94334 1.35151 3.45051 1.14209C3.95769 0.932658 4.50123 0.825469 5.04994 0.82667C5.59864 0.827872 6.14171 0.937441 6.64796 1.14909C7.15421 1.36073 7.61367 1.67029 7.99997 2.05998C8.7846 1.29487 9.83909 0.869701 10.935 0.876568C12.0309 0.883434 13.08 1.32179 13.855 2.09667C14.6299 2.87155 15.0684 3.92056 15.0755 5.01646C15.0825 6.11236 14.6575 7.1669 13.8925 7.95165Z"/>
</svg>
