<svg width="43" height="43" viewBox="0 0 43 43" xmlns="http://www.w3.org/2000/svg">
<path d="M34.1689 23.5461L24.0334 33.6834C23.3615 34.3552 22.4502 34.7325 21.5 34.7325C20.5498 34.7325 19.6386 34.3552 18.9666 33.6834L8.83114 23.5479C7.9933 22.7174 7.32776 21.7296 6.87272 20.6411C6.41768 19.5527 6.18211 18.3851 6.17953 17.2054C6.17694 16.0256 6.4074 14.857 6.85767 13.7666C7.30794 12.6762 7.96915 11.6854 8.80334 10.8513C9.63753 10.0171 10.6283 9.35585 11.7187 8.90558C12.8091 8.45531 13.9777 8.22486 15.1575 8.22744C16.3372 8.23002 17.5048 8.46559 18.5932 8.92063C19.6816 9.37567 20.6695 10.0412 21.5 10.8791C23.187 9.23407 25.4541 8.31995 27.8103 8.33472C30.1665 8.34948 32.422 9.29194 34.0882 10.9579C35.7545 12.6239 36.6972 14.8793 36.7123 17.2355C36.7274 19.5917 35.8136 21.8589 34.1689 23.5461Z" stroke="black" stroke-linecap="round" stroke-linejoin="round"/>
</svg>
