<svg width="29" height="29" viewBox="0 0 29 29" fill="none" xmlns="http://www.w3.org/2000/svg">
<path d="M14.6038 28.8333C10.6216 28.8333 7.2371 27.44 4.45047 24.6534C1.66383 21.8655 0.270508 18.4811 0.270508 14.5C0.270508 10.8713 1.45301 7.72391 3.81801 5.05791C6.1854 2.3943 9.11418 0.821815 12.6043 0.340454C12.7011 0.340454 12.796 0.344038 12.8892 0.351204C12.9824 0.358371 13.0738 0.368523 13.1633 0.381662C12.559 1.22494 12.0806 2.16258 11.7282 3.19458C11.3759 4.22777 11.1997 5.30934 11.1997 6.43929C11.1997 9.62487 12.3141 12.3321 14.5429 14.5609C16.773 16.7909 19.4808 17.906 22.6663 17.906C23.8035 17.906 24.8862 17.7298 25.9146 17.3774C26.9442 17.0251 27.8687 16.5467 28.6881 15.9423C28.7025 16.0319 28.7132 16.1232 28.7204 16.2164C28.7264 16.3096 28.7293 16.4039 28.7293 16.4995C28.2707 19.9909 26.7089 22.9196 24.0441 25.2858C21.3793 27.652 18.2338 28.8345 14.6038 28.8333ZM14.602 27.0417C17.2298 27.0417 19.5889 26.3172 21.6791 24.8684C23.7694 23.4195 25.2923 21.5311 26.2479 19.2031C25.6507 19.3524 25.0534 19.4719 24.4562 19.5615C23.859 19.651 23.2618 19.6958 22.6645 19.6958C18.9928 19.6958 15.8652 18.4046 13.2816 15.8222C10.698 13.2399 9.40681 10.1116 9.40801 6.4375C9.40801 5.84027 9.4528 5.24305 9.54238 4.64583C9.63197 4.04861 9.75141 3.45138 9.90072 2.85416C7.57155 3.80972 5.68254 5.33263 4.23367 7.42291C2.78481 9.51319 2.06098 11.8722 2.06217 14.5C2.06217 17.9639 3.28648 20.9201 5.73509 23.3687C8.1837 25.8174 11.1382 27.0417 14.602 27.0417Z" fill="black" fill-opacity="0.82"/>
</svg>
