<svg width="13" height="10" viewBox="0 0 13 10" xmlns="http://www.w3.org/2000/svg">
<path d="M7.72 1.52991C7.64632 1.46125 7.58721 1.37845 7.54622 1.28645C7.50523 1.19445 7.48319 1.09513 7.48141 0.994432C7.47964 0.893729 7.49816 0.7937 7.53588 0.700312C7.5736 0.606923 7.62975 0.52209 7.70097 0.450871C7.77218 0.379652 7.85702 0.323508 7.95041 0.285787C8.04379 0.248066 8.14382 0.229541 8.24453 0.231318C8.34523 0.233095 8.44454 0.255136 8.53654 0.296128C8.62854 0.33712 8.71134 0.396222 8.78 0.469909L12.78 4.46991C12.9205 4.61054 12.9993 4.80116 12.9993 4.99991C12.9993 5.19866 12.9205 5.38928 12.78 5.52991L8.78 9.52991C8.71134 9.6036 8.62854 9.6627 8.53654 9.70369C8.44454 9.74468 8.34523 9.76672 8.24453 9.7685C8.14382 9.77028 8.04379 9.75175 7.95041 9.71403C7.85702 9.67631 7.77218 9.62017 7.70097 9.54895C7.62975 9.47773 7.5736 9.39289 7.53588 9.29951C7.49816 9.20612 7.47964 9.10609 7.48141 9.00539C7.48319 8.90468 7.50523 8.80537 7.54622 8.71337C7.58721 8.62137 7.64632 8.53857 7.72 8.46991L10.44 5.74991L0.750004 5.74991C0.551091 5.74991 0.360326 5.67089 0.219673 5.53024C0.0790205 5.38959 3.8147e-06 5.19882 3.8147e-06 4.99991C3.8147e-06 4.801 0.0790205 4.61023 0.219673 4.46958C0.360326 4.32893 0.551091 4.24991 0.750004 4.24991L10.44 4.24991L7.72 1.52991Z" fill-opacity="0.82"/>
</svg>
