<svg width="30" height="30" xmlns="http://www.w3.org/2000/svg"><path d="M5.575 1.824c-.691.153-1.183.435-1.685.967-.467.496-.703.946-.836 1.599-.087.426-.072 20.89.016 21.285.156.703.439 1.186 1.003 1.713.42.393.837.62 1.397.762.389.098.558.1 9.53.1s9.141-.002 9.53-.1c.64-.162.986-.364 1.496-.874s.712-.856.874-1.496c.098-.39.1-.557.1-10.78 0-10.223-.002-10.39-.1-10.78-.162-.64-.364-.986-.874-1.496-.464-.464-.759-.647-1.376-.856-.264-.089-.648-.093-9.525-.102-7.534-.007-9.306.003-9.55.058M24.46 3.409c.363.17.711.518.881.881l.134.285v20.85l-.134.285c-.17.363-.518.711-.881.881l-.285.134H5.825l-.285-.134a1.947 1.947 0 0 1-.881-.881l-.134-.285V4.575l.134-.285c.231-.494.715-.89 1.208-.988.114-.023 4.281-.039 9.258-.034l9.05.007.285.134m-2.314 2.205c-.37.249-.488.627-.308.985.351.699 1.411.433 1.412-.354 0-.572-.645-.941-1.104-.631m-7.721 2.415c-1.416.133-2.565.496-3.659 1.154-3.317 1.998-4.815 6.025-3.588 9.649 1.05 3.103 3.646 5.208 6.921 5.615 1.696.211 3.678-.228 5.175-1.146 3.29-2.018 4.768-6.03 3.548-9.633-.437-1.292-1.06-2.302-1.999-3.241a8.268 8.268 0 0 0-4.573-2.322c-.361-.057-1.514-.105-1.825-.076m1.271 1.523a6.632 6.632 0 0 1 3.996 1.868c1.008.975 1.662 2.195 1.94 3.618.116.595.116 1.829 0 2.424-.499 2.555-2.302 4.55-4.757 5.261a6.68 6.68 0 0 1-6.68-1.756c-.867-.894-1.429-1.888-1.723-3.05a6.74 6.74 0 0 1 3.891-7.865 6.591 6.591 0 0 1 3.333-.5m-4.816 6.061c-.319.183-.393.375-.361.937.122 2.194 1.951 4.034 4.159 4.183.373.025.485.015.638-.057a.727.727 0 0 0 .42-.62c.04-.454-.311-.803-.811-.806-.748-.005-1.421-.298-2.006-.875-.33-.325-.444-.479-.608-.825A3.128 3.128 0 0 1 12 16.27c0-.403-.356-.768-.75-.768a.908.908 0 0 0-.37.111" fill-rule="evenodd"/></svg>