<svg xmlns="http://www.w3.org/2000/svg" width="30" height="30" fill="none"><path stroke="#000" stroke-linecap="round" stroke-linejoin="round" stroke-width="1.5" d="m22.5 6.263.012-.014M26.25 5v20a2.5 2.5 0 0 1-2.5 2.5H6.25a2.5 2.5 0 0 1-2.5-2.5V5a2.5 2.5 0 0 1 2.5-2.5h17.5a2.5 2.5 0 0 1 2.5 2.5"/><path stroke="#000" stroke-linecap="round" stroke-linejoin="round" stroke-width="1.5" d="M15 23.75a7.5 7.5 0 1 0 0-15 7.5 7.5 0 0 0 0 15"/><path stroke="#000" stroke-linecap="round" stroke-linejoin="round" stroke-width="1.5" d="M15 20a3.75 3.75 0 0 1-3.75-3.75"/></svg>