<svg width="20" height="20" viewBox="0 0 20 20" fill="none" xmlns="http://www.w3.org/2000/svg">
<path d="M17.8923 11.9516L13.1782 16.6666C12.8656 16.9791 12.4418 17.1546 11.9998 17.1546C11.5579 17.1546 11.1341 16.9791 10.8215 16.6666L6.10734 11.9525C5.71765 11.5662 5.4081 11.1067 5.19645 10.6005C4.9848 10.0942 4.87523 9.55116 4.87403 9.00245C4.87283 8.45374 4.98002 7.9102 5.18945 7.40303C5.39888 6.89586 5.70642 6.43505 6.09441 6.04705C6.48241 5.65905 6.94322 5.35151 7.45039 5.14209C7.95756 4.93266 8.50111 4.82547 9.04981 4.82667C9.59852 4.82787 10.1416 4.93744 10.6478 5.14909C11.1541 5.36073 11.6136 5.67029 11.9998 6.05998C12.7845 5.29487 13.839 4.8697 14.9349 4.87657C16.0308 4.88343 17.0798 5.32179 17.8548 6.09667C18.6298 6.87155 19.0683 7.92056 19.0753 9.01646C19.0824 10.1124 18.6573 11.1669 17.8923 11.9516Z" stroke="white" stroke-linecap="round" stroke-linejoin="round"/>
</svg>
