<svg width="16" height="18" viewBox="0 0 16 18" fill="none" xmlns="http://www.w3.org/2000/svg">
<path d="M14.25 6.40625H11.5938V4.375C11.5938 3.42188 11.2151 2.50779 10.5412 1.83383C9.86721 1.15988 8.95312 0.78125 8 0.78125C7.04688 0.78125 6.13279 1.15988 5.45884 1.83383C4.78488 2.50779 4.40625 3.42188 4.40625 4.375V6.40625H1.75C1.45992 6.40625 1.18172 6.52148 0.976602 6.7266C0.771484 6.93172 0.65625 7.20992 0.65625 7.5V16.25C0.65625 16.5401 0.771484 16.8183 0.976602 17.0234C1.18172 17.2285 1.45992 17.3438 1.75 17.3438H14.25C14.5401 17.3438 14.8183 17.2285 15.0234 17.0234C15.2285 16.8183 15.3438 16.5401 15.3438 16.25V7.5C15.3438 7.20992 15.2285 6.93172 15.0234 6.7266C14.8183 6.52148 14.5401 6.40625 14.25 6.40625ZM5.34375 4.375C5.34375 3.67052 5.6236 2.99489 6.12175 2.49675C6.61989 1.9986 7.29552 1.71875 8 1.71875C8.70448 1.71875 9.38011 1.9986 9.87825 2.49675C10.3764 2.99489 10.6562 3.67052 10.6562 4.375V6.40625H5.34375V4.375ZM14.4062 16.25C14.4062 16.2914 14.3898 16.3312 14.3605 16.3605C14.3312 16.3898 14.2914 16.4062 14.25 16.4062H1.75C1.70856 16.4062 1.66882 16.3898 1.63951 16.3605C1.61021 16.3312 1.59375 16.2914 1.59375 16.25V7.5C1.59375 7.45856 1.61021 7.41882 1.63951 7.38951C1.66882 7.36021 1.70856 7.34375 1.75 7.34375H14.25C14.2914 7.34375 14.3312 7.36021 14.3605 7.38951C14.3898 7.41882 14.4062 7.45856 14.4062 7.5V16.25ZM8.78125 11.875C8.78125 12.0295 8.73543 12.1806 8.64959 12.309C8.56374 12.4375 8.44173 12.5377 8.29897 12.5968C8.15622 12.6559 7.99913 12.6714 7.84759 12.6412C7.69604 12.6111 7.55683 12.5367 7.44757 12.4274C7.33831 12.3182 7.26391 12.179 7.23376 12.0274C7.20362 11.8759 7.21909 11.7188 7.27822 11.576C7.33735 11.4333 7.43748 11.3113 7.56596 11.2254C7.69444 11.1396 7.84548 11.0938 8 11.0938C8.2072 11.0938 8.40591 11.1761 8.55243 11.3226C8.69894 11.4691 8.78125 11.6678 8.78125 11.875Z" fill="black"/>
</svg>
