<svg width="100" height="100" style="display: none">

<symbol id="basket" width="43" height="43" viewBox="0 0 43 43" xmlns="http://www.w3.org/2000/svg">
<path d="M22.1719 20.1563V29.5625C22.1719 29.7407 22.1011 29.9116 21.9751 30.0376C21.8491 30.1636 21.6782 30.2344 21.5 30.2344C21.3218 30.2344 21.1509 30.1636 21.0249 30.0376C20.8989 29.9116 20.8281 29.7407 20.8281 29.5625V20.1563C20.8281 19.9781 20.8989 19.8072 21.0249 19.6812C21.1509 19.5552 21.3218 19.4844 21.5 19.4844C21.6782 19.4844 21.8491 19.5552 21.9751 19.6812C22.1011 19.8072 22.1719 19.9781 22.1719 20.1563ZM39.6221 16.3921L37.2891 33.8609C37.2244 34.3442 36.9868 34.7877 36.6202 35.1092C36.2536 35.4307 35.7829 35.6084 35.2953 35.6094H7.70472C7.21711 35.6084 6.74638 35.4307 6.37977 35.1092C6.01317 34.7877 5.77554 34.3442 5.71093 33.8609L3.38289 16.3921C3.34489 16.1079 3.36798 15.8188 3.45062 15.5442C3.53326 15.2696 3.67354 15.0158 3.8621 14.7997C4.05065 14.5837 4.28314 14.4103 4.54404 14.2913C4.80493 14.1722 5.08823 14.1102 5.37499 14.1094H11.788L20.9961 3.58953C21.0591 3.51804 21.1367 3.46078 21.2236 3.42156C21.3104 3.38234 21.4047 3.36206 21.5 3.36206C21.5953 3.36206 21.6896 3.38234 21.7764 3.42156C21.8633 3.46078 21.9409 3.51804 22.0039 3.58953L31.212 14.1094H37.625C37.9122 14.1095 38.196 14.171 38.4576 14.2897C38.7191 14.4084 38.9522 14.5817 39.1413 14.7978C39.3304 15.014 39.4711 15.268 39.554 15.543C39.637 15.8179 39.6602 16.1075 39.6221 16.3921ZM13.5736 14.1094H29.4264L21.5 5.05086L13.5736 14.1094ZM38.1289 15.6816C38.0664 15.6094 37.9889 15.5516 37.902 15.5122C37.815 15.4728 37.7205 15.4526 37.625 15.4532H5.37499C5.27891 15.4524 5.18376 15.4722 5.09598 15.5112C5.0082 15.5503 4.92982 15.6078 4.86614 15.6798C4.80246 15.7517 4.75496 15.8365 4.72683 15.9284C4.69871 16.0203 4.69062 16.1171 4.70312 16.2124L7.03117 33.6811C7.05286 33.8435 7.13312 33.9923 7.25685 34.0997C7.38058 34.207 7.53925 34.2654 7.70304 34.264H35.2953C35.4591 34.2654 35.6177 34.207 35.7415 34.0997C35.8652 33.9923 35.9454 33.8435 35.9671 33.6811L38.2969 16.2141C38.3094 16.1184 38.3008 16.0212 38.2718 15.9293C38.2428 15.8373 38.194 15.7528 38.1289 15.6816ZM30.4359 19.4844C30.3481 19.4756 30.2595 19.4841 30.175 19.5096C30.0905 19.535 30.0119 19.5769 29.9435 19.6327C29.8752 19.6885 29.8186 19.7573 29.7768 19.835C29.7351 19.9128 29.7091 19.998 29.7002 20.0857L28.7596 29.492C28.7498 29.5803 28.7577 29.6697 28.7827 29.755C28.8077 29.8402 28.8494 29.9197 28.9053 29.9887C28.9612 30.0578 29.0303 30.115 29.1085 30.1572C29.1867 30.1994 29.2725 30.2256 29.3609 30.2344H29.4298C29.5969 30.2353 29.7584 30.1738 29.8826 30.062C30.0069 29.9501 30.085 29.796 30.1017 29.6297L31.0423 20.2235C31.0516 20.135 31.0432 20.0456 31.0177 19.9605C30.9921 19.8753 30.9499 19.796 30.8935 19.7273C30.8371 19.6585 30.7676 19.6017 30.6891 19.56C30.6105 19.5183 30.5245 19.4926 30.4359 19.4844ZM12.5641 19.4844C12.4763 19.4932 12.3911 19.5193 12.3133 19.561C12.2356 19.6028 12.1669 19.6594 12.111 19.7277C12.0552 19.796 12.0133 19.8747 11.9879 19.9592C11.9625 20.0437 11.9539 20.1323 11.9627 20.2201L12.9034 29.6264C12.9201 29.7927 12.9982 29.9468 13.1224 30.0586C13.2466 30.1704 13.4081 30.2319 13.5752 30.2311H13.6441C13.7319 30.2222 13.8171 30.1962 13.8948 30.1545C13.9725 30.1127 14.0413 30.0561 14.0971 29.9877C14.153 29.9194 14.1948 29.8408 14.2203 29.7563C14.2457 29.6718 14.2542 29.5831 14.2454 29.4954L13.3048 20.0891C13.2964 20.0005 13.2705 19.9145 13.2286 19.8361C13.1868 19.7576 13.1297 19.6882 13.0608 19.632C12.9919 19.5757 12.9125 19.5337 12.8272 19.5084C12.742 19.483 12.6525 19.4749 12.5641 19.4844Z" fill="black"/>
</symbol>

<symbol id="emaill" xmlns="http://www.w3.org/2000/svg" width="43" height="43"><path stroke="#000" d="M32.25 10.75h-21.5a3.583 3.583 0 0 0-3.583 3.583v14.334a3.583 3.583 0 0 0 3.583 3.583h21.5a3.583 3.583 0 0 0 3.583-3.583V14.333a3.583 3.583 0 0 0-3.583-3.583Z"/><path stroke="#000" d="m7.167 16.125 12.731 6.366a3.58 3.58 0 0 0 3.204 0l12.731-6.366"/></symbol>
<symbol id="heart-card" width="16" height="14" viewBox="0 0 16 14" fill="none" xmlns="http://www.w3.org/2000/svg">
<path d="M13.8925 7.95165L9.1783 12.6666C8.86575 12.9791 8.44191 13.1546 7.99997 13.1546C7.55803 13.1546 7.13418 12.9791 6.82163 12.6666L2.10747 7.95248C1.71777 7.56619 1.40822 7.10673 1.19657 6.60048C0.984926 6.09423 0.875357 5.55116 0.874155 5.00245C0.872954 4.45374 0.980144 3.9102 1.18957 3.40303C1.399 2.89586 1.70654 2.43505 2.09453 2.04705C2.48253 1.65905 2.94334 1.35151 3.45051 1.14209C3.95769 0.932658 4.50123 0.825469 5.04994 0.82667C5.59864 0.827872 6.14171 0.937441 6.64796 1.14909C7.15421 1.36073 7.61367 1.67029 7.99997 2.05998C8.7846 1.29487 9.83909 0.869701 10.935 0.876568C12.0309 0.883434 13.08 1.32179 13.855 2.09667C14.6299 2.87155 15.0684 3.92056 15.0755 5.01646C15.0825 6.11236 14.6575 7.1669 13.8925 7.95165Z"/>
</symbol>

<symbol id="heart" width="43" height="43" viewBox="0 0 43 43" xmlns="http://www.w3.org/2000/svg">
<path d="M34.1689 23.5461L24.0334 33.6834C23.3615 34.3552 22.4502 34.7325 21.5 34.7325C20.5498 34.7325 19.6386 34.3552 18.9666 33.6834L8.83114 23.5479C7.9933 22.7174 7.32776 21.7296 6.87272 20.6411C6.41768 19.5527 6.18211 18.3851 6.17953 17.2054C6.17694 16.0256 6.4074 14.857 6.85767 13.7666C7.30794 12.6762 7.96915 11.6854 8.80334 10.8513C9.63753 10.0171 10.6283 9.35585 11.7187 8.90558C12.8091 8.45531 13.9777 8.22486 15.1575 8.22744C16.3372 8.23002 17.5048 8.46559 18.5932 8.92063C19.6816 9.37567 20.6695 10.0412 21.5 10.8791C23.187 9.23407 25.4541 8.31995 27.8103 8.33472C30.1665 8.34948 32.422 9.29194 34.0882 10.9579C35.7545 12.6239 36.6972 14.8793 36.7123 17.2355C36.7274 19.5917 35.8136 21.8589 34.1689 23.5461Z" stroke="black" stroke-linecap="round" stroke-linejoin="round"/>
</symbol>

<symbol id="moon" width="29" height="29" viewBox="0 0 29 29" fill="none" xmlns="http://www.w3.org/2000/svg">
<path d="M14.6038 28.8333C10.6216 28.8333 7.2371 27.44 4.45047 24.6534C1.66383 21.8655 0.270508 18.4811 0.270508 14.5C0.270508 10.8713 1.45301 7.72391 3.81801 5.05791C6.1854 2.3943 9.11418 0.821815 12.6043 0.340454C12.7011 0.340454 12.796 0.344038 12.8892 0.351204C12.9824 0.358371 13.0738 0.368523 13.1633 0.381662C12.559 1.22494 12.0806 2.16258 11.7282 3.19458C11.3759 4.22777 11.1997 5.30934 11.1997 6.43929C11.1997 9.62487 12.3141 12.3321 14.5429 14.5609C16.773 16.7909 19.4808 17.906 22.6663 17.906C23.8035 17.906 24.8862 17.7298 25.9146 17.3774C26.9442 17.0251 27.8687 16.5467 28.6881 15.9423C28.7025 16.0319 28.7132 16.1232 28.7204 16.2164C28.7264 16.3096 28.7293 16.4039 28.7293 16.4995C28.2707 19.9909 26.7089 22.9196 24.0441 25.2858C21.3793 27.652 18.2338 28.8345 14.6038 28.8333ZM14.602 27.0417C17.2298 27.0417 19.5889 26.3172 21.6791 24.8684C23.7694 23.4195 25.2923 21.5311 26.2479 19.2031C25.6507 19.3524 25.0534 19.4719 24.4562 19.5615C23.859 19.651 23.2618 19.6958 22.6645 19.6958C18.9928 19.6958 15.8652 18.4046 13.2816 15.8222C10.698 13.2399 9.40681 10.1116 9.40801 6.4375C9.40801 5.84027 9.4528 5.24305 9.54238 4.64583C9.63197 4.04861 9.75141 3.45138 9.90072 2.85416C7.57155 3.80972 5.68254 5.33263 4.23367 7.42291C2.78481 9.51319 2.06098 11.8722 2.06217 14.5C2.06217 17.9639 3.28648 20.9201 5.73509 23.3687C8.1837 25.8174 11.1382 27.0417 14.602 27.0417Z" fill="black" fill-opacity="0.82"/>
</symbol>

<symbol id="search-arrow" width="18" height="11" viewBox="0 0 18 11" fill="none" xmlns="http://www.w3.org/2000/svg">
<path d="M12.0714 10.2619L16.8333 5.50004M16.8333 5.50004L12.0714 0.703613M16.8333 5.50004L1.35715 5.50004" stroke="white" stroke-linecap="round" stroke-linejoin="round"/>
</symbol>

<symbol id="search" xmlns="http://www.w3.org/2000/svg" width="25" height="25" fill="none"><path stroke="#000" stroke-linecap="round" stroke-linejoin="round" stroke-opacity=".9" d="m21.875 21.875-4.524-4.524m0 0a8.332 8.332 0 0 0-5.893-14.226 8.334 8.334 0 1 0 5.893 14.226"/></symbol>
<symbol id="sun" width="29" height="29" viewBox="0 0 42 42" fill="none" xmlns="http://www.w3.org/2000/svg">
<path d="M21 29.8889C25.9092 29.8889 29.8889 25.9092 29.8889 21C29.8889 16.0908 25.9092 12.1111 21 12.1111C16.0908 12.1111 12.1111 16.0908 12.1111 21C12.1111 25.9092 16.0908 29.8889 21 29.8889Z" stroke="white" stroke-width="2" stroke-linejoin="round"/>
<path d="M38.7778 21H41M1 21H3.22222M21 38.7778V41M21 1V3.22222M33.5711 33.5711L35.1422 35.1422M6.85778 6.85778L8.42889 8.42889M8.42889 33.5711L6.85778 35.1422M35.1422 6.85778L33.5711 8.42889" stroke="white" stroke-width="2" stroke-linecap="round"/>
</symbol>

</svg>