<svg width="100" height="100" style="display: none">

<symbol id="camera" xmlns="http://www.w3.org/2000/svg" width="30" height="30" fill="none"><g fill="#000" clip-path="url(#a)"><path d="M28.125 22.5a1.875 1.875 0 0 1-1.875 1.875H3.75A1.875 1.875 0 0 1 1.875 22.5V11.25A1.875 1.875 0 0 1 3.75 9.375h2.198c1.49 0 2.92-.594 3.974-1.648l1.557-1.553c.35-.35.826-.548 1.322-.549h4.395c.497 0 .974.198 1.325.55l1.553 1.552a5.63 5.63 0 0 0 3.978 1.648h2.198a1.875 1.875 0 0 1 1.875 1.875zM3.75 7.5A3.75 3.75 0 0 0 0 11.25V22.5a3.75 3.75 0 0 0 3.75 3.75h22.5A3.75 3.75 0 0 0 30 22.5V11.25a3.75 3.75 0 0 0-3.75-3.75h-2.198a3.75 3.75 0 0 1-2.65-1.099L19.848 4.85a3.75 3.75 0 0 0-2.651-1.099h-4.395a3.75 3.75 0 0 0-2.652 1.099L8.6 6.4A3.75 3.75 0 0 1 5.947 7.5z"/><path d="M15 20.625a4.688 4.688 0 1 1 0-9.376 4.688 4.688 0 0 1 0 9.376m0 1.875a6.563 6.563 0 1 0 0-13.125A6.563 6.563 0 0 0 15 22.5M5.625 12.188a.937.937 0 1 1-1.875 0 .937.937 0 0 1 1.875 0"/></g><defs><clipPath ><path fill="#fff" d="M0 0h30v30H0z"/></clipPath></defs></symbol>
<symbol id="emaill" xmlns="http://www.w3.org/2000/svg" width="43" height="43" fill="none"><path stroke="#000" d="M32.25 10.75h-21.5a3.583 3.583 0 0 0-3.583 3.583v14.334a3.583 3.583 0 0 0 3.583 3.583h21.5a3.583 3.583 0 0 0 3.583-3.583V14.333a3.583 3.583 0 0 0-3.583-3.583Z"/><path stroke="#000" d="m7.167 16.125 12.731 6.366a3.58 3.58 0 0 0 3.204 0l12.731-6.366"/></symbol>
<symbol id="headphones" xmlns="http://www.w3.org/2000/svg" width="30" height="30" fill="none"><path fill="#000" d="M23.493 7.508a11.88 11.88 0 0 0-8.403-3.524H15A11.953 11.953 0 0 0 3.047 15.938V22.5a2.58 2.58 0 0 0 2.578 2.578H7.5a2.58 2.58 0 0 0 2.578-2.578v-4.687A2.58 2.58 0 0 0 7.5 15.234H4.477A10.561 10.561 0 0 1 22.5 8.498a10.48 10.48 0 0 1 3.025 6.736H22.5a2.58 2.58 0 0 0-2.578 2.579V22.5a2.58 2.58 0 0 0 2.578 2.578h1.875a2.58 2.58 0 0 0 2.578-2.578v-6.562a11.9 11.9 0 0 0-3.46-8.43M7.5 16.641a1.17 1.17 0 0 1 1.172 1.172V22.5A1.17 1.17 0 0 1 7.5 23.672H5.625A1.17 1.17 0 0 1 4.453 22.5v-5.86zM25.547 22.5a1.17 1.17 0 0 1-1.172 1.172H22.5a1.17 1.17 0 0 1-1.172-1.172v-4.687A1.17 1.17 0 0 1 22.5 16.64h3.047z"/></symbol>
<symbol id="heart" xmlns="http://www.w3.org/2000/svg" width="43" height="43" fill="none"><path stroke="#000" stroke-linecap="round" stroke-linejoin="round" d="M34.169 23.546 24.033 33.683a3.583 3.583 0 0 1-5.066 0L8.83 23.548A8.957 8.957 0 1 1 21.5 10.879a8.958 8.958 0 0 1 12.669 12.667"/></symbol>
<symbol id="laptop" xmlns="http://www.w3.org/2000/svg" width="30" height="30" fill="none"><path fill="#000" d="M5.63 4.286a3.48 3.48 0 0 0-3.483 3.482v11.25A3.48 3.48 0 0 0 5.63 22.5h18.747a3.48 3.48 0 0 0 3.482-3.482V7.768a3.48 3.48 0 0 0-3.482-3.482zM3.753 7.768c0-1.035.84-1.875 1.875-1.875h18.747c1.035 0 1.875.84 1.875 1.875v11.25a1.875 1.875 0 0 1-1.875 1.875H5.63a1.875 1.875 0 0 1-1.875-1.875zm3.478 16.875a.804.804 0 1 0 0 1.607h15.536a.804.804 0 1 0 0-1.607z"/></symbol>
<symbol id="mouse" xmlns="http://www.w3.org/2000/svg" width="30" height="30" fill="none"><path fill="#000" d="M16.875 2.11h-3.75a7.274 7.274 0 0 0-7.266 7.265v11.25a7.274 7.274 0 0 0 7.266 7.266h3.75a7.274 7.274 0 0 0 7.266-7.266V9.375a7.273 7.273 0 0 0-7.266-7.266m5.86 7.265v3.047h-7.032V3.516h1.172a5.866 5.866 0 0 1 5.86 5.859m-9.61-5.86h1.172v8.907H7.266V9.375a5.866 5.866 0 0 1 5.859-5.86m3.75 22.97h-3.75a5.866 5.866 0 0 1-5.86-5.86v-6.797h15.47v6.797a5.866 5.866 0 0 1-5.86 5.86"/></symbol>
<symbol id="search" xmlns="http://www.w3.org/2000/svg" width="25" height="25" fill="none"><path stroke="#000" stroke-linecap="round" stroke-linejoin="round" stroke-opacity=".9" d="m21.875 21.875-4.524-4.524m0 0a8.332 8.332 0 0 0-5.893-14.226 8.334 8.334 0 1 0 5.893 14.226"/></symbol>
<symbol id="smartphone" xmlns="http://www.w3.org/2000/svg" width="30" height="30" fill="none"><path fill="#000" fill-rule="evenodd" d="M8.25.75A2.25 2.25 0 0 0 6 3v24a2.25 2.25 0 0 0 2.25 2.25h13.5A2.25 2.25 0 0 0 24 27V3A2.25 2.25 0 0 0 21.75.75zM7.5 3a.75.75 0 0 1 .75-.75h2.25v1.5a.75.75 0 0 0 .75.75h7.5a.75.75 0 0 0 .75-.75v-1.5h2.25a.75.75 0 0 1 .75.75v24a.75.75 0 0 1-.75.75H8.25A.75.75 0 0 1 7.5 27z" clip-rule="evenodd"/></symbol>
<symbol id="washing" xmlns="http://www.w3.org/2000/svg" width="30" height="30" fill="none"><path stroke="#000" stroke-linecap="round" stroke-linejoin="round" stroke-width="1.5" d="m22.5 6.263.012-.014M26.25 5v20a2.5 2.5 0 0 1-2.5 2.5H6.25a2.5 2.5 0 0 1-2.5-2.5V5a2.5 2.5 0 0 1 2.5-2.5h17.5a2.5 2.5 0 0 1 2.5 2.5"/><path stroke="#000" stroke-linecap="round" stroke-linejoin="round" stroke-width="1.5" d="M15 23.75a7.5 7.5 0 1 0 0-15 7.5 7.5 0 0 0 0 15"/><path stroke="#000" stroke-linecap="round" stroke-linejoin="round" stroke-width="1.5" d="M15 20a3.75 3.75 0 0 1-3.75-3.75"/></symbol>
</svg>