<svg width="100" height="100" style="display: none">

<symbol id="emaill" xmlns="http://www.w3.org/2000/svg" width="43" height="43" fill="none"><path stroke="#000" d="M32.25 10.75h-21.5a3.583 3.583 0 0 0-3.583 3.583v14.334a3.583 3.583 0 0 0 3.583 3.583h21.5a3.583 3.583 0 0 0 3.583-3.583V14.333a3.583 3.583 0 0 0-3.583-3.583Z"/><path stroke="#000" d="m7.167 16.125 12.731 6.366a3.58 3.58 0 0 0 3.204 0l12.731-6.366"/></symbol>
<symbol id="heart" xmlns="http://www.w3.org/2000/svg" width="43" height="43" fill="none"><path stroke="#000" stroke-linecap="round" stroke-linejoin="round" d="M34.169 23.546 24.033 33.683a3.583 3.583 0 0 1-5.066 0L8.83 23.548A8.957 8.957 0 1 1 21.5 10.879a8.958 8.958 0 0 1 12.669 12.667"/></symbol>
<symbol id="search" xmlns="http://www.w3.org/2000/svg" width="25" height="25" fill="none"><path stroke="#000" stroke-linecap="round" stroke-linejoin="round" stroke-opacity=".9" d="m21.875 21.875-4.524-4.524m0 0a8.332 8.332 0 0 0-5.893-14.226 8.334 8.334 0 1 0 5.893 14.226"/></symbol>
</svg>